<?xml version="1.0" standalone="no"?><!DOCTYPE svg PUBLIC "-//W3C//DTD SVG 1.1//EN" "http://www.w3.org/Graphics/SVG/1.1/DTD/svg11.dtd"><svg t="1623659190725" class="icon" viewBox="0 0 1024 1024" version="1.1" xmlns="http://www.w3.org/2000/svg" p-id="2515" xmlns:xlink="http://www.w3.org/1999/xlink" width="20" height="20"><defs><style type="text/css"></style></defs><path d="M64.00000001 128m64 0l640 0q64 0 64 64l0 64q0 64-64 64l-640 0q-64 0-64-64l0-64q0-64 64-64Z" p-id="2516" fill="#bfbfbf"></path><path d="M64.00000001 416m64 0l640 0q64 0 64 64l0 64q0 64-64 64l-640 0q-64 0-64-64l0-64q0-64 64-64Z" p-id="2517" fill="#bfbfbf"></path><path d="M64.00000001 704m64 0l640 0q64 0 64 64l0 64q0 64-64 64l-640 0q-64 0-64-64l0-64q0-64 64-64Z" p-id="2518" fill="#bfbfbf"></path></svg>