<?xml version="1.0" standalone="no"?><!DOCTYPE svg PUBLIC "-//W3C//DTD SVG 1.1//EN" "http://www.w3.org/Graphics/SVG/1.1/DTD/svg11.dtd"><svg t="1623568994537" class="icon" viewBox="0 0 1024 1024" version="1.1" xmlns="http://www.w3.org/2000/svg" p-id="3142" xmlns:xlink="http://www.w3.org/1999/xlink" width="20" height="20"><defs><style type="text/css"></style></defs><path d="M168 504.192A343.232 343.232 0 0 1 268.608 268.8 342.208 342.208 0 0 1 511.936 168a341.376 341.376 0 0 1 243.008 100.8c9.92 9.92 19.2 20.416 27.776 31.36l-60.16 47.04a8 8 0 0 0 2.944 14.08l175.744 43.008a8 8 0 0 0 9.92-7.68l0.768-180.928a7.936 7.936 0 0 0-12.928-6.272l-56.32 44.096a419.904 419.904 0 0 0-750.72 250.24 8 8 0 0 0 8 8.256H160a8 8 0 0 0 8-7.808zM924.032 512H864a8 8 0 0 0-8 7.808A342.144 342.144 0 0 1 755.392 755.2 342.4 342.4 0 0 1 512.128 856a342.208 342.208 0 0 1-271.04-132.224l60.16-46.976a8 8 0 0 0-2.944-14.08l-175.68-43.008a8 8 0 0 0-9.92 7.68L112 808.384c0 6.72 7.68 10.496 12.928 6.336l56.32-44.16a419.904 419.904 0 0 0 750.72-250.368 8 8 0 0 0-8-8.192z" p-id="3143" fill="#ffffff"></path></svg>