<?xml version="1.0" standalone="no"?><!DOCTYPE svg PUBLIC "-//W3C//DTD SVG 1.1//EN" "http://www.w3.org/Graphics/SVG/1.1/DTD/svg11.dtd"><svg t="1623984668830" class="icon" viewBox="0 0 1024 1024" version="1.1" xmlns="http://www.w3.org/2000/svg" p-id="4590" xmlns:xlink="http://www.w3.org/1999/xlink" width="32" height="32"><defs><style type="text/css"></style></defs><path d="M511 968c-61.7 0-121.5-12.1-177.9-35.9-54.4-23-103.3-56-145.3-97.9-42-42-74.9-90.8-97.9-145.2C66.1 632.5 54 572.7 54 511c0-118.4 45.1-230.7 127-316.1 81.6-85.2 191.3-135 308.9-140.4 14.6-0.7 28.5 6.7 36.1 19.3 7.6 12.6 7.7 28.2 0.3 40.9-25 42.7-38.2 91.6-38.2 141.3 0 74.8 29.1 145.1 82 198 52.9 52.9 123.2 82 198 82 49 0 97.2-12.8 139.4-37.1 12.7-7.3 28.4-7.1 40.9 0.6 12.5 7.7 19.8 21.6 19 36.2-6.2 116.8-56.5 225.7-141.4 306.5C740.6 923.3 628.8 968 511 968z m-85-824.4c-70.9 16.3-135.8 53-187.2 106.6C171.2 320.7 134 413.3 134 511c0 100.7 39.2 195.4 110.4 266.6C315.6 848.8 410.3 888 511 888c177.2 0 327.1-122.5 366.7-289.1C842.4 610.2 805.4 616 768 616c-48.6 0-95.7-9.5-140.1-28.3-42.9-18.1-81.4-44.1-114.4-77.1-33-33-59-71.5-77.1-114.4C417.5 351.7 408 304.6 408 256c0-38.3 6.1-76.3 18-112.4z" p-id="4591" fill="#cdcdcd"></path></svg>